<?xml version="1.0" standalone="no"?>
<!DOCTYPE svg PUBLIC "-//W3C//DTD SVG 20010904//EN"
 "http://www.w3.org/TR/2001/REC-SVG-20010904/DTD/svg10.dtd">
<svg version="1.0" xmlns="http://www.w3.org/2000/svg"
 width="512.000000pt" height="512.000000pt" viewBox="0 0 512.000000 512.000000"
 preserveAspectRatio="xMidYMid meet">
<metadata>
Created by potrace 1.11, written by Peter Selinger 2001-2013
</metadata>
<g transform="translate(0.000000,512.000000) scale(0.100000,-0.100000)"
fill="#000000" stroke="none">
<path d="M175 5107 c-85 -33 -141 -92 -165 -173 -8 -29 -10 -667 -8 -2394 3
-2306 3 -2356 22 -2394 25 -50 72 -97 122 -122 38 -19 85 -19 2414 -19 2329 0
2376 0 2414 19 50 25 97 72 122 122 19 38 19 85 19 2414 0 2329 0 2376 -19
2414 -25 50 -72 97 -122 122 -38 19 -87 19 -2404 21 -1794 1 -2372 -1 -2395
-10z m3912 -1562 c76 -34 157 -115 196 -194 30 -62 32 -72 32 -176 0 -104 -2
-114 -32 -176 -60 -122 -179 -209 -311 -227 -330 -45 -572 288 -426 587 94
191 343 277 541 186z m-2806 -1115 c280 -53 426 -372 282 -617 -32 -55 -119
-134 -177 -161 -207 -98 -454 -11 -550 193 -114 240 25 523 284 581 70 16 95
16 161 4z m1349 0 c130 -25 246 -112 303 -229 30 -62 32 -72 32 -176 0 -105
-2 -114 -33 -178 -155 -314 -589 -314 -744 0 -31 64 -33 73 -33 178 0 104 2
114 32 176 55 113 174 204 295 228 61 12 88 12 148 1z m1451 -33 c160 -77 246
-223 237 -401 -5 -102 -37 -175 -110 -252 -101 -107 -241 -151 -381 -120 -317
71 -432 456 -204 687 87 88 171 120 307 116 79 -3 105 -8 151 -30z m-2734
-1137 c255 -88 356 -415 194 -630 -217 -288 -663 -191 -737 161 -28 133 10
262 107 364 113 119 278 159 436 105z m1338 5 c100 -28 199 -116 252 -224 25
-51 28 -66 28 -166 0 -103 -2 -114 -32 -177 -41 -88 -113 -160 -201 -201 -62
-30 -75 -32 -172 -32 -97 0 -110 2 -172 32 -88 41 -160 113 -201 201 -30 63
-32 74 -32 177 0 101 2 115 29 170 17 34 55 85 87 118 113 112 251 146 414
102z m1396 -21 c162 -76 245 -215 237 -395 -3 -73 -9 -97 -37 -153 -18 -37
-54 -88 -83 -116 -236 -233 -631 -101 -689 229 -36 200 103 409 306 462 17 5
68 7 115 6 71 -3 96 -8 151 -33z"/>
</g>
</svg>
